<?xml version="1.0" encoding="utf-8" standalone="no"?>
<!DOCTYPE svg PUBLIC "-//W3C//DTD SVG 1.1//EN"
  "http://www.w3.org/Graphics/SVG/1.1/DTD/svg11.dtd">
<!-- Created with matplotlib (http://matplotlib.org/) -->
<svg height="345pt" version="1.1" viewBox="0 0 1334 345" width="1334pt" xmlns="http://www.w3.org/2000/svg" xmlns:xlink="http://www.w3.org/1999/xlink">
 <defs>
  <style type="text/css">
*{stroke-linecap:butt;stroke-linejoin:round;}
  </style>
 </defs>
 <g id="figure_1">
  <g id="patch_1">
   <path d="M 0 345.6 
L 1334.88 345.6 
L 1334.88 0 
L 0 0 
z
" style="fill:#ffffff;"/>
  </g>
  <g id="axes_1">
   <g id="patch_2">
    <path d="M 60.387429 324.205714 
L 1334.88 324.205714 
L 1334.88 0 
L 60.387429 0 
z
" style="fill:#ffffff;"/>
   </g>
   <g id="matplotlib.axis_1">
    <g id="xtick_1">
     <g id="line2d_1">
      <defs>
       <path d="M 0 0 
L 0 3.5 
" id="m32e1af1441" style="stroke:#000000;stroke-width:0.8;"/>
      </defs>
      <g>
       <use style="stroke:#000000;stroke-width:0.8;" x="64.291032" xlink:href="#m32e1af1441" y="324.205714"/>
      </g>
     </g>
     <g id="text_1">
      <!-- 0 -->
      <defs>
       <path d="M 31.78125 66.40625 
Q 24.171875 66.40625 20.328125 58.90625 
Q 16.5 51.421875 16.5 36.375 
Q 16.5 21.390625 20.328125 13.890625 
Q 24.171875 6.390625 31.78125 6.390625 
Q 39.453125 6.390625 43.28125 13.890625 
Q 47.125 21.390625 47.125 36.375 
Q 47.125 51.421875 43.28125 58.90625 
Q 39.453125 66.40625 31.78125 66.40625 
z
M 31.78125 74.21875 
Q 44.046875 74.21875 50.515625 64.515625 
Q 56.984375 54.828125 56.984375 36.375 
Q 56.984375 17.96875 50.515625 8.265625 
Q 44.046875 -1.421875 31.78125 -1.421875 
Q 19.53125 -1.421875 13.0625 8.265625 
Q 6.59375 17.96875 6.59375 36.375 
Q 6.59375 54.828125 13.0625 64.515625 
Q 19.53125 74.21875 31.78125 74.21875 
z
" id="DejaVuSans-30"/>
      </defs>
      <g transform="translate(61.109782 338.804152)scale(0.1 -0.1)">
       <use xlink:href="#DejaVuSans-30"/>
      </g>
     </g>
    </g>
    <g id="xtick_2">
     <g id="line2d_2">
      <g>
       <use style="stroke:#000000;stroke-width:0.8;" x="217.623702" xlink:href="#m32e1af1441" y="324.205714"/>
      </g>
     </g>
     <g id="text_2">
      <!-- 250 -->
      <defs>
       <path d="M 19.1875 8.296875 
L 53.609375 8.296875 
L 53.609375 0 
L 7.328125 0 
L 7.328125 8.296875 
Q 12.9375 14.109375 22.625 23.890625 
Q 32.328125 33.6875 34.8125 36.53125 
Q 39.546875 41.84375 41.421875 45.53125 
Q 43.3125 49.21875 43.3125 52.78125 
Q 43.3125 58.59375 39.234375 62.25 
Q 35.15625 65.921875 28.609375 65.921875 
Q 23.96875 65.921875 18.8125 64.3125 
Q 13.671875 62.703125 7.8125 59.421875 
L 7.8125 69.390625 
Q 13.765625 71.78125 18.9375 73 
Q 24.125 74.21875 28.421875 74.21875 
Q 39.75 74.21875 46.484375 68.546875 
Q 53.21875 62.890625 53.21875 53.421875 
Q 53.21875 48.921875 51.53125 44.890625 
Q 49.859375 40.875 45.40625 35.40625 
Q 44.1875 33.984375 37.640625 27.21875 
Q 31.109375 20.453125 19.1875 8.296875 
z
" id="DejaVuSans-32"/>
       <path d="M 10.796875 72.90625 
L 49.515625 72.90625 
L 49.515625 64.59375 
L 19.828125 64.59375 
L 19.828125 46.734375 
Q 21.96875 47.46875 24.109375 47.828125 
Q 26.265625 48.1875 28.421875 48.1875 
Q 40.625 48.1875 47.75 41.5 
Q 54.890625 34.8125 54.890625 23.390625 
Q 54.890625 11.625 47.5625 5.09375 
Q 40.234375 -1.421875 26.90625 -1.421875 
Q 22.3125 -1.421875 17.546875 -0.640625 
Q 12.796875 0.140625 7.71875 1.703125 
L 7.71875 11.625 
Q 12.109375 9.234375 16.796875 8.0625 
Q 21.484375 6.890625 26.703125 6.890625 
Q 35.15625 6.890625 40.078125 11.328125 
Q 45.015625 15.765625 45.015625 23.390625 
Q 45.015625 31 40.078125 35.4375 
Q 35.15625 39.890625 26.703125 39.890625 
Q 22.75 39.890625 18.8125 39.015625 
Q 14.890625 38.140625 10.796875 36.28125 
z
" id="DejaVuSans-35"/>
      </defs>
      <g transform="translate(208.079952 338.804152)scale(0.1 -0.1)">
       <use xlink:href="#DejaVuSans-32"/>
       <use x="63.623047" xlink:href="#DejaVuSans-35"/>
       <use x="127.246094" xlink:href="#DejaVuSans-30"/>
      </g>
     </g>
    </g>
    <g id="xtick_3">
     <g id="line2d_3">
      <g>
       <use style="stroke:#000000;stroke-width:0.8;" x="370.956371" xlink:href="#m32e1af1441" y="324.205714"/>
      </g>
     </g>
     <g id="text_3">
      <!-- 500 -->
      <g transform="translate(361.412621 338.804152)scale(0.1 -0.1)">
       <use xlink:href="#DejaVuSans-35"/>
       <use x="63.623047" xlink:href="#DejaVuSans-30"/>
       <use x="127.246094" xlink:href="#DejaVuSans-30"/>
      </g>
     </g>
    </g>
    <g id="xtick_4">
     <g id="line2d_4">
      <g>
       <use style="stroke:#000000;stroke-width:0.8;" x="524.289041" xlink:href="#m32e1af1441" y="324.205714"/>
      </g>
     </g>
     <g id="text_4">
      <!-- 750 -->
      <defs>
       <path d="M 8.203125 72.90625 
L 55.078125 72.90625 
L 55.078125 68.703125 
L 28.609375 0 
L 18.3125 0 
L 43.21875 64.59375 
L 8.203125 64.59375 
z
" id="DejaVuSans-37"/>
      </defs>
      <g transform="translate(514.745291 338.804152)scale(0.1 -0.1)">
       <use xlink:href="#DejaVuSans-37"/>
       <use x="63.623047" xlink:href="#DejaVuSans-35"/>
       <use x="127.246094" xlink:href="#DejaVuSans-30"/>
      </g>
     </g>
    </g>
    <g id="xtick_5">
     <g id="line2d_5">
      <g>
       <use style="stroke:#000000;stroke-width:0.8;" x="677.621711" xlink:href="#m32e1af1441" y="324.205714"/>
      </g>
     </g>
     <g id="text_5">
      <!-- 1000 -->
      <defs>
       <path d="M 12.40625 8.296875 
L 28.515625 8.296875 
L 28.515625 63.921875 
L 10.984375 60.40625 
L 10.984375 69.390625 
L 28.421875 72.90625 
L 38.28125 72.90625 
L 38.28125 8.296875 
L 54.390625 8.296875 
L 54.390625 0 
L 12.40625 0 
z
" id="DejaVuSans-31"/>
      </defs>
      <g transform="translate(664.896711 338.804152)scale(0.1 -0.1)">
       <use xlink:href="#DejaVuSans-31"/>
       <use x="63.623047" xlink:href="#DejaVuSans-30"/>
       <use x="127.246094" xlink:href="#DejaVuSans-30"/>
       <use x="190.869141" xlink:href="#DejaVuSans-30"/>
      </g>
     </g>
    </g>
    <g id="xtick_6">
     <g id="line2d_6">
      <g>
       <use style="stroke:#000000;stroke-width:0.8;" x="830.954381" xlink:href="#m32e1af1441" y="324.205714"/>
      </g>
     </g>
     <g id="text_6">
      <!-- 1250 -->
      <g transform="translate(818.229381 338.804152)scale(0.1 -0.1)">
       <use xlink:href="#DejaVuSans-31"/>
       <use x="63.623047" xlink:href="#DejaVuSans-32"/>
       <use x="127.246094" xlink:href="#DejaVuSans-35"/>
       <use x="190.869141" xlink:href="#DejaVuSans-30"/>
      </g>
     </g>
    </g>
    <g id="xtick_7">
     <g id="line2d_7">
      <g>
       <use style="stroke:#000000;stroke-width:0.8;" x="984.28705" xlink:href="#m32e1af1441" y="324.205714"/>
      </g>
     </g>
     <g id="text_7">
      <!-- 1500 -->
      <g transform="translate(971.56205 338.804152)scale(0.1 -0.1)">
       <use xlink:href="#DejaVuSans-31"/>
       <use x="63.623047" xlink:href="#DejaVuSans-35"/>
       <use x="127.246094" xlink:href="#DejaVuSans-30"/>
       <use x="190.869141" xlink:href="#DejaVuSans-30"/>
      </g>
     </g>
    </g>
    <g id="xtick_8">
     <g id="line2d_8">
      <g>
       <use style="stroke:#000000;stroke-width:0.8;" x="1137.61972" xlink:href="#m32e1af1441" y="324.205714"/>
      </g>
     </g>
     <g id="text_8">
      <!-- 1750 -->
      <g transform="translate(1124.89472 338.804152)scale(0.1 -0.1)">
       <use xlink:href="#DejaVuSans-31"/>
       <use x="63.623047" xlink:href="#DejaVuSans-37"/>
       <use x="127.246094" xlink:href="#DejaVuSans-35"/>
       <use x="190.869141" xlink:href="#DejaVuSans-30"/>
      </g>
     </g>
    </g>
    <g id="xtick_9">
     <g id="line2d_9">
      <g>
       <use style="stroke:#000000;stroke-width:0.8;" x="1290.95239" xlink:href="#m32e1af1441" y="324.205714"/>
      </g>
     </g>
     <g id="text_9">
      <!-- 2000 -->
      <g transform="translate(1278.22739 338.804152)scale(0.1 -0.1)">
       <use xlink:href="#DejaVuSans-32"/>
       <use x="63.623047" xlink:href="#DejaVuSans-30"/>
       <use x="127.246094" xlink:href="#DejaVuSans-30"/>
       <use x="190.869141" xlink:href="#DejaVuSans-30"/>
      </g>
     </g>
    </g>
   </g>
   <g id="matplotlib.axis_2">
    <g id="ytick_1">
     <g id="line2d_10">
      <defs>
       <path d="M 0 0 
L -3.5 0 
" id="m350f6c7612" style="stroke:#000000;stroke-width:0.8;"/>
      </defs>
      <g>
       <use style="stroke:#000000;stroke-width:0.8;" x="60.387429" xlink:href="#m350f6c7612" y="320.478087"/>
      </g>
     </g>
     <g id="text_10">
      <!-- 2150000 -->
      <g transform="translate(8.849929 324.277306)scale(0.1 -0.1)">
       <use xlink:href="#DejaVuSans-32"/>
       <use x="63.623047" xlink:href="#DejaVuSans-31"/>
       <use x="127.246094" xlink:href="#DejaVuSans-35"/>
       <use x="190.869141" xlink:href="#DejaVuSans-30"/>
       <use x="254.492188" xlink:href="#DejaVuSans-30"/>
       <use x="318.115234" xlink:href="#DejaVuSans-30"/>
       <use x="381.738281" xlink:href="#DejaVuSans-30"/>
      </g>
     </g>
    </g>
    <g id="ytick_2">
     <g id="line2d_11">
      <g>
       <use style="stroke:#000000;stroke-width:0.8;" x="60.387429" xlink:href="#m350f6c7612" y="269.648083"/>
      </g>
     </g>
     <g id="text_11">
      <!-- 2160000 -->
      <defs>
       <path d="M 33.015625 40.375 
Q 26.375 40.375 22.484375 35.828125 
Q 18.609375 31.296875 18.609375 23.390625 
Q 18.609375 15.53125 22.484375 10.953125 
Q 26.375 6.390625 33.015625 6.390625 
Q 39.65625 6.390625 43.53125 10.953125 
Q 47.40625 15.53125 47.40625 23.390625 
Q 47.40625 31.296875 43.53125 35.828125 
Q 39.65625 40.375 33.015625 40.375 
z
M 52.59375 71.296875 
L 52.59375 62.3125 
Q 48.875 64.0625 45.09375 64.984375 
Q 41.3125 65.921875 37.59375 65.921875 
Q 27.828125 65.921875 22.671875 59.328125 
Q 17.53125 52.734375 16.796875 39.40625 
Q 19.671875 43.65625 24.015625 45.921875 
Q 28.375 48.1875 33.59375 48.1875 
Q 44.578125 48.1875 50.953125 41.515625 
Q 57.328125 34.859375 57.328125 23.390625 
Q 57.328125 12.15625 50.6875 5.359375 
Q 44.046875 -1.421875 33.015625 -1.421875 
Q 20.359375 -1.421875 13.671875 8.265625 
Q 6.984375 17.96875 6.984375 36.375 
Q 6.984375 53.65625 15.1875 63.9375 
Q 23.390625 74.21875 37.203125 74.21875 
Q 40.921875 74.21875 44.703125 73.484375 
Q 48.484375 72.75 52.59375 71.296875 
z
" id="DejaVuSans-36"/>
      </defs>
      <g transform="translate(8.849929 273.447302)scale(0.1 -0.1)">
       <use xlink:href="#DejaVuSans-32"/>
       <use x="63.623047" xlink:href="#DejaVuSans-31"/>
       <use x="127.246094" xlink:href="#DejaVuSans-36"/>
       <use x="190.869141" xlink:href="#DejaVuSans-30"/>
       <use x="254.492188" xlink:href="#DejaVuSans-30"/>
       <use x="318.115234" xlink:href="#DejaVuSans-30"/>
       <use x="381.738281" xlink:href="#DejaVuSans-30"/>
      </g>
     </g>
    </g>
    <g id="ytick_3">
     <g id="line2d_12">
      <g>
       <use style="stroke:#000000;stroke-width:0.8;" x="60.387429" xlink:href="#m350f6c7612" y="218.81808"/>
      </g>
     </g>
     <g id="text_12">
      <!-- 2170000 -->
      <g transform="translate(8.849929 222.617298)scale(0.1 -0.1)">
       <use xlink:href="#DejaVuSans-32"/>
       <use x="63.623047" xlink:href="#DejaVuSans-31"/>
       <use x="127.246094" xlink:href="#DejaVuSans-37"/>
       <use x="190.869141" xlink:href="#DejaVuSans-30"/>
       <use x="254.492188" xlink:href="#DejaVuSans-30"/>
       <use x="318.115234" xlink:href="#DejaVuSans-30"/>
       <use x="381.738281" xlink:href="#DejaVuSans-30"/>
      </g>
     </g>
    </g>
    <g id="ytick_4">
     <g id="line2d_13">
      <g>
       <use style="stroke:#000000;stroke-width:0.8;" x="60.387429" xlink:href="#m350f6c7612" y="167.988076"/>
      </g>
     </g>
     <g id="text_13">
      <!-- 2180000 -->
      <defs>
       <path d="M 31.78125 34.625 
Q 24.75 34.625 20.71875 30.859375 
Q 16.703125 27.09375 16.703125 20.515625 
Q 16.703125 13.921875 20.71875 10.15625 
Q 24.75 6.390625 31.78125 6.390625 
Q 38.8125 6.390625 42.859375 10.171875 
Q 46.921875 13.96875 46.921875 20.515625 
Q 46.921875 27.09375 42.890625 30.859375 
Q 38.875 34.625 31.78125 34.625 
z
M 21.921875 38.8125 
Q 15.578125 40.375 12.03125 44.71875 
Q 8.5 49.078125 8.5 55.328125 
Q 8.5 64.0625 14.71875 69.140625 
Q 20.953125 74.21875 31.78125 74.21875 
Q 42.671875 74.21875 48.875 69.140625 
Q 55.078125 64.0625 55.078125 55.328125 
Q 55.078125 49.078125 51.53125 44.71875 
Q 48 40.375 41.703125 38.8125 
Q 48.828125 37.15625 52.796875 32.3125 
Q 56.78125 27.484375 56.78125 20.515625 
Q 56.78125 9.90625 50.3125 4.234375 
Q 43.84375 -1.421875 31.78125 -1.421875 
Q 19.734375 -1.421875 13.25 4.234375 
Q 6.78125 9.90625 6.78125 20.515625 
Q 6.78125 27.484375 10.78125 32.3125 
Q 14.796875 37.15625 21.921875 38.8125 
z
M 18.3125 54.390625 
Q 18.3125 48.734375 21.84375 45.5625 
Q 25.390625 42.390625 31.78125 42.390625 
Q 38.140625 42.390625 41.71875 45.5625 
Q 45.3125 48.734375 45.3125 54.390625 
Q 45.3125 60.0625 41.71875 63.234375 
Q 38.140625 66.40625 31.78125 66.40625 
Q 25.390625 66.40625 21.84375 63.234375 
Q 18.3125 60.0625 18.3125 54.390625 
z
" id="DejaVuSans-38"/>
      </defs>
      <g transform="translate(8.849929 171.787295)scale(0.1 -0.1)">
       <use xlink:href="#DejaVuSans-32"/>
       <use x="63.623047" xlink:href="#DejaVuSans-31"/>
       <use x="127.246094" xlink:href="#DejaVuSans-38"/>
       <use x="190.869141" xlink:href="#DejaVuSans-30"/>
       <use x="254.492188" xlink:href="#DejaVuSans-30"/>
       <use x="318.115234" xlink:href="#DejaVuSans-30"/>
       <use x="381.738281" xlink:href="#DejaVuSans-30"/>
      </g>
     </g>
    </g>
    <g id="ytick_5">
     <g id="line2d_14">
      <g>
       <use style="stroke:#000000;stroke-width:0.8;" x="60.387429" xlink:href="#m350f6c7612" y="117.158072"/>
      </g>
     </g>
     <g id="text_14">
      <!-- 2190000 -->
      <defs>
       <path d="M 10.984375 1.515625 
L 10.984375 10.5 
Q 14.703125 8.734375 18.5 7.8125 
Q 22.3125 6.890625 25.984375 6.890625 
Q 35.75 6.890625 40.890625 13.453125 
Q 46.046875 20.015625 46.78125 33.40625 
Q 43.953125 29.203125 39.59375 26.953125 
Q 35.25 24.703125 29.984375 24.703125 
Q 19.046875 24.703125 12.671875 31.3125 
Q 6.296875 37.9375 6.296875 49.421875 
Q 6.296875 60.640625 12.9375 67.421875 
Q 19.578125 74.21875 30.609375 74.21875 
Q 43.265625 74.21875 49.921875 64.515625 
Q 56.59375 54.828125 56.59375 36.375 
Q 56.59375 19.140625 48.40625 8.859375 
Q 40.234375 -1.421875 26.421875 -1.421875 
Q 22.703125 -1.421875 18.890625 -0.6875 
Q 15.09375 0.046875 10.984375 1.515625 
z
M 30.609375 32.421875 
Q 37.25 32.421875 41.125 36.953125 
Q 45.015625 41.5 45.015625 49.421875 
Q 45.015625 57.28125 41.125 61.84375 
Q 37.25 66.40625 30.609375 66.40625 
Q 23.96875 66.40625 20.09375 61.84375 
Q 16.21875 57.28125 16.21875 49.421875 
Q 16.21875 41.5 20.09375 36.953125 
Q 23.96875 32.421875 30.609375 32.421875 
z
" id="DejaVuSans-39"/>
      </defs>
      <g transform="translate(8.849929 120.957291)scale(0.1 -0.1)">
       <use xlink:href="#DejaVuSans-32"/>
       <use x="63.623047" xlink:href="#DejaVuSans-31"/>
       <use x="127.246094" xlink:href="#DejaVuSans-39"/>
       <use x="190.869141" xlink:href="#DejaVuSans-30"/>
       <use x="254.492188" xlink:href="#DejaVuSans-30"/>
       <use x="318.115234" xlink:href="#DejaVuSans-30"/>
       <use x="381.738281" xlink:href="#DejaVuSans-30"/>
      </g>
     </g>
    </g>
    <g id="ytick_6">
     <g id="line2d_15">
      <g>
       <use style="stroke:#000000;stroke-width:0.8;" x="60.387429" xlink:href="#m350f6c7612" y="66.328069"/>
      </g>
     </g>
     <g id="text_15">
      <!-- 2200000 -->
      <g transform="translate(8.849929 70.127287)scale(0.1 -0.1)">
       <use xlink:href="#DejaVuSans-32"/>
       <use x="63.623047" xlink:href="#DejaVuSans-32"/>
       <use x="127.246094" xlink:href="#DejaVuSans-30"/>
       <use x="190.869141" xlink:href="#DejaVuSans-30"/>
       <use x="254.492188" xlink:href="#DejaVuSans-30"/>
       <use x="318.115234" xlink:href="#DejaVuSans-30"/>
       <use x="381.738281" xlink:href="#DejaVuSans-30"/>
      </g>
     </g>
    </g>
    <g id="ytick_7">
     <g id="line2d_16">
      <g>
       <use style="stroke:#000000;stroke-width:0.8;" x="60.387429" xlink:href="#m350f6c7612" y="15.498065"/>
      </g>
     </g>
     <g id="text_16">
      <!-- 2210000 -->
      <g transform="translate(8.849929 19.297284)scale(0.1 -0.1)">
       <use xlink:href="#DejaVuSans-32"/>
       <use x="63.623047" xlink:href="#DejaVuSans-32"/>
       <use x="127.246094" xlink:href="#DejaVuSans-31"/>
       <use x="190.869141" xlink:href="#DejaVuSans-30"/>
       <use x="254.492188" xlink:href="#DejaVuSans-30"/>
       <use x="318.115234" xlink:href="#DejaVuSans-30"/>
       <use x="381.738281" xlink:href="#DejaVuSans-30"/>
      </g>
     </g>
    </g>
   </g>
   <g id="line2d_17">
    <path clip-path="url(#p9158f69f62)" d="M 64.291032 110.229943 
L 163.650602 110.229943 
L 164.263932 190.358361 
L 164.508905 346.6 
M 173.113921 346.6 
L 173.463893 111.963246 
L 174.077223 110.229943 
L 269.143479 110.229943 
L 269.758957 346.6 
M 275.85767 346.6 
L 275.890116 182.932097 
L 276.503447 110.229943 
L 427.382794 110.229943 
L 427.996124 114.08794 
L 428.609455 119.501336 
L 429.222786 123.445744 
L 429.836116 131.924188 
L 430.449447 128.869305 
L 431.062778 127.654468 
L 431.676109 123.089934 
L 432.289439 113.310241 
L 432.90277 111.312622 
L 434.742762 111.246543 
L 435.356093 111.561689 
L 435.969423 112.984929 
L 436.582754 113.096755 
L 437.809415 111.256709 
L 439.036077 110.229943 
L 453.142682 110.229943 
L 453.756013 110.860235 
L 454.369344 115.927986 
L 454.982674 122.169911 
L 456.209336 136.981774 
L 456.822666 131.354892 
L 457.435997 127.923867 
L 458.662658 112.639285 
L 459.275989 111.348203 
L 461.115981 111.302456 
L 461.729312 111.790424 
L 462.342642 112.913767 
L 462.955973 112.705364 
L 463.569304 111.627768 
L 464.182635 110.78399 
L 464.795965 110.763658 
L 466.022627 110.229943 
L 480.129232 110.229943 
L 480.742563 111.978495 
L 481.969224 118.337328 
L 482.582555 122.779871 
L 483.195886 117.346143 
L 483.809216 115.587425 
L 484.422547 111.388867 
L 485.035878 110.636583 
L 486.87587 110.509508 
L 487.4892 110.824654 
L 488.102531 111.978495 
L 488.715862 112.624036 
L 489.329192 112.354637 
L 489.942523 111.653183 
L 490.555854 110.229943 
L 505.889121 110.229943 
L 506.502451 110.524757 
L 507.115782 119.333597 
L 507.729113 132.85946 
L 508.342443 140.631368 
L 508.955774 141.607304 
L 509.569105 134.826582 
L 510.795766 113.244162 
L 511.409097 111.95308 
L 513.249089 111.836171 
L 513.86242 112.252977 
L 514.47575 113.22383 
L 515.089081 113.650802 
L 515.702412 113.320407 
L 516.315742 112.247894 
L 516.929073 110.229943 
L 584.395448 110.229943 
L 585.008778 117.178404 
L 585.622109 128.406752 
L 586.23544 134.059049 
L 588.075432 136.763205 
L 588.688762 132.30033 
L 589.302093 116.568444 
L 589.915424 111.541357 
L 591.755416 111.439697 
L 592.368746 111.80059 
L 592.982077 112.51221 
L 593.595408 112.81719 
L 594.208739 112.659617 
L 594.822069 111.897167 
L 595.4354 110.229943 
L 610.155336 110.229943 
L 610.768667 113.335656 
L 611.381998 131.670038 
L 611.995328 156.444582 
L 612.608659 257.057491 
L 613.22199 278.644994 
L 613.83532 278.639911 
L 614.448651 273.892389 
L 615.061982 166.91048 
L 616.288643 117.529131 
L 616.901974 110.789073 
L 617.515304 110.229943 
L 643.888524 110.229943 
L 644.501854 111.897167 
L 645.115185 116.243132 
L 645.728516 148.321948 
L 646.341846 129.204783 
L 646.955177 114.667402 
L 647.568508 110.229943 
L 662.901775 110.229943 
L 664.741767 141.144751 
L 665.355097 145.521214 
L 665.968428 147.666241 
L 666.581759 144.052227 
L 667.195089 138.659164 
L 667.80842 120.949991 
L 668.421751 112.191981 
L 669.035081 111.958163 
L 670.261743 111.912416 
L 670.875073 112.46138 
L 671.488404 113.416984 
L 672.101735 113.915118 
L 672.715065 113.640636 
L 673.328396 112.527459 
L 673.941727 110.656915 
L 674.555057 110.229943 
L 715.648213 110.229943 
L 716.261544 119.526751 
L 717.488205 143.65067 
L 718.101536 145.821111 
L 718.714866 142.903469 
L 719.328197 132.407073 
L 719.941528 118.494901 
L 720.554858 111.968329 
L 721.168189 111.551523 
L 722.39485 111.505776 
L 723.008181 111.693847 
L 723.621512 112.949348 
L 724.234842 113.721964 
L 724.848173 113.828707 
L 725.461504 112.974763 
L 726.074835 111.332954 
L 726.688165 110.229943 
L 767.16799 110.229943 
L 767.781321 110.468844 
L 769.007982 129.626672 
L 769.621313 134.872329 
L 770.847974 142.049525 
L 771.461305 138.715077 
L 772.074635 128.594823 
L 772.687966 113.945616 
L 773.301297 111.90225 
L 775.141289 111.907333 
L 776.36795 113.640636 
L 776.981281 113.864288 
L 777.594612 113.315324 
L 778.207942 112.100487 
L 778.821273 110.229943 
L 793.541209 110.229943 
L 794.15454 118.86596 
L 794.767871 135.61953 
L 795.381201 142.212181 
L 795.994532 145.897356 
L 796.607863 147.889893 
L 797.221193 152.108783 
L 797.834524 146.690304 
L 798.447855 136.915695 
L 799.061185 115.170619 
L 799.674516 112.344471 
L 800.901177 112.217396 
L 801.514508 112.542708 
L 802.741169 114.458999 
L 803.3545 114.489497 
L 804.581161 112.146234 
L 805.194492 110.229943 
L 819.301098 110.229943 
L 819.914428 113.594889 
L 820.527759 138.125449 
L 821.14109 143.24403 
L 821.75442 146.736051 
L 822.367751 148.098296 
L 822.981082 153.521857 
L 823.594413 153.201628 
L 824.207743 151.64623 
L 824.821074 137.952627 
L 825.434405 117.610459 
L 826.047735 112.405467 
L 827.274397 112.344471 
L 828.501058 114.601323 
L 829.114389 114.870722 
L 829.727719 114.398003 
L 830.34105 113.117087 
L 830.954381 112.268226 
L 831.567711 110.722994 
L 832.181042 110.229943 
L 872.047536 110.229943 
L 872.660867 112.400384 
L 873.274198 136.422644 
L 873.887528 141.56664 
L 874.500859 153.232126 
L 875.11419 173.996182 
L 875.72752 171.119204 
L 876.340851 149.323299 
L 876.954182 140.748277 
L 877.567512 128.310175 
L 878.180843 110.229943 
L 897.807425 110.229943 
L 898.420755 111.69893 
L 899.034086 139.370784 
L 899.647417 146.858043 
L 900.260747 149.435125 
L 900.874078 148.774335 
L 901.487409 151.773305 
L 902.100739 153.216877 
L 902.71407 151.402246 
L 903.940731 116.227883 
L 904.554062 112.395301 
L 905.780724 112.30889 
L 906.394054 113.310241 
L 907.007385 115.704334 
L 907.620716 115.643338 
L 908.847377 112.96968 
L 909.460708 112.532542 
L 910.074038 111.932748 
L 910.687369 110.839903 
L 911.3007 110.229943 
L 1319.778932 110.229943 
L 1319.778932 110.229943 
" style="fill:none;stroke:#1f77b4;stroke-linecap:square;stroke-width:1.5;"/>
   </g>
   <g id="patch_3">
    <path d="M 60.387429 324.205714 
L 60.387429 0 
" style="fill:none;stroke:#000000;stroke-linecap:square;stroke-linejoin:miter;stroke-width:0.8;"/>
   </g>
   <g id="patch_4">
    <path d="M 1334.88 324.205714 
L 1334.88 0 
" style="fill:none;stroke:#000000;stroke-linecap:square;stroke-linejoin:miter;stroke-width:0.8;"/>
   </g>
   <g id="patch_5">
    <path d="M 60.387429 324.205714 
L 1334.88 324.205714 
" style="fill:none;stroke:#000000;stroke-linecap:square;stroke-linejoin:miter;stroke-width:0.8;"/>
   </g>
   <g id="patch_6">
    <path d="M 60.387429 0 
L 1334.88 0 
" style="fill:none;stroke:#000000;stroke-linecap:square;stroke-linejoin:miter;stroke-width:0.8;"/>
   </g>
  </g>
 </g>
 <defs>
  <clipPath id="p9158f69f62">
   <rect height="324.205714" width="1274.492571" x="60.387429" y="0"/>
  </clipPath>
 </defs>
</svg>
